# xmcd CD database file
#
# Track frame offsets:
#	150
#	15547
#	26665
#	37832
#	50255
#	65632
#	77350
#	105360
#	122167
#	149280
#	168220
#	186725
#
# Disc length: 2698 seconds
#
# Revision: 1
# Processed by: cddbd v1.5.2PL0 Copyright (c) Steve Scherf et al.
# Submitted via: CDex 1.70beta2
#
DISCID=950a880c
DTITLE=Richard "Groove" Holmes - Book of the Blues (Vol. 1)
DYEAR=1964
DGENRE=Blues
TTITLE0=See See Rider
TTITLE1=Organ Grinder
TTITLE2=I´d Rather Drink Muddy Water
TTITLE3=Mean Old Frisco Blues
TTITLE4=I´m Gonna Move on the Outskirt of Town
TTITLE5=Your Red Wagon
TTITLE6=How Long, How Long Blues
TTITLE7=In the dark
TTITLE8=Roll´Em Pete
TTITLE9=Blues For Big Fred (previously unissued recording)
TTITLE10=Please Send Me Someone To Love (previously unissued recording)
TTITLE11=Tobacco Road (previously unissued recording)
EXTD=YEAR: 1964
EXTT0=
EXTT1=
EXTT2=
EXTT3=
EXTT4=
EXTT5=
EXTT6=
EXTT7=
EXTT8=
EXTT9=
EXTT10=
EXTT11=
PLAYORDER=
